<svg width="33.000000" height="33.000000" viewBox="0 0 33 33" fill="none" xmlns="http://www.w3.org/2000/svg" xmlns:xlink="http://www.w3.org/1999/xlink">
	<desc>
			Created with Pixso.
	</desc>
	<defs>
		<clipPath id="clip17_1314">
			<rect id="shopping-basket-2-fill" width="33.000000" height="33.000000" fill="white" fill-opacity="0"/>
		</clipPath>
	</defs>
	<rect id="shopping-basket-2-fill" width="33.000000" height="33.000000" fill="#FFFFFF" fill-opacity="0"/>
	<g clip-path="url(#clip17_1314)">
		<rect id="Background" x="1.000000" y="0.970795" rx="15.047304" width="31.000000" height="30.094608" fill="#F5F5F5" fill-opacity="1.000000"/>
		<rect id="Background" x="1.000000" y="0.970795" rx="15.047304" width="31.000000" height="30.094608" stroke="#4CAF50" stroke-opacity="1.000000" stroke-width="1.000000"/>
		<path id="矢量 90" d="M18.69 8.73L21.26 13.65L24 13.65L24 15.42L23.06 15.42L22.46 23.45C22.44 23.67 22.35 23.88 22.2 24.03C22.05 24.18 21.86 24.26 21.66 24.26L10.33 24.26C10.13 24.26 9.94 24.18 9.79 24.03C9.64 23.88 9.55 23.67 9.53 23.45L8.93 15.42L8 15.42L8 13.65L10.73 13.65L13.3 8.73L14.69 9.62L12.58 13.65L19.41 13.65L17.3 9.62L18.69 8.73L18.69 8.73ZM16.79 17.19L15.2 17.19L15.2 20.73L16.79 20.73L16.79 17.19ZM13.6 17.19L12 17.19L12 20.73L13.6 20.73L13.6 17.19ZM20 17.19L18.39 17.19L18.39 20.73L20 20.73L20 17.19Z" fill="#4CAF50" fill-opacity="1.000000" fill-rule="evenodd"/>
	</g>
</svg>
