<svg width="15.619141" height="19.027832" viewBox="0 0 15.6191 19.0278" fill="none" xmlns="http://www.w3.org/2000/svg" xmlns:xlink="http://www.w3.org/1999/xlink">
	<desc>
			Created with Pixso.
	</desc>
	<defs/>
	<path id="↳ Icon Color" d="M7.76 7.04C8.06 6.73 8.54 6.73 8.83 7.04C9.13 7.35 9.13 7.85 8.83 8.16L5.66 11.46C5.22 11.91 5.2 12.67 5.66 13.14C6.11 13.62 6.84 13.59 7.27 13.14L13.2 6.98C14.42 5.71 14.35 3.7 13.2 2.5C12.05 1.31 10.11 1.24 8.89 2.5L2.96 8.66C1.02 10.68 1.06 13.96 2.96 15.94C4.87 17.92 8.02 17.96 9.97 15.94L13.15 12.64C13.44 12.33 13.92 12.33 14.22 12.64C14.52 12.95 14.52 13.45 14.22 13.76L11.04 17.06C8.5 19.7 4.38 19.65 1.89 17.06C-0.61 14.46 -0.66 10.19 1.89 7.54L7.81 1.38C9.64 -0.52 12.54 -0.42 14.28 1.38C16.01 3.18 16.11 6.2 14.28 8.1L8.35 14.26C7.34 15.31 5.65 15.37 4.58 14.26C3.51 13.15 3.57 11.39 4.58 10.34L7.76 7.04Z" fill="#333333" fill-opacity="1.000000" fill-rule="evenodd"/>
</svg>
