<svg width="33.000000" height="33.892776" viewBox="0 0 33 33.8928" fill="none" xmlns="http://www.w3.org/2000/svg" xmlns:xlink="http://www.w3.org/1999/xlink">
	<desc>
			Created with Pixso.
	</desc>
	<defs/>
	<rect id="10 Product/user" width="32.000000" height="33.000000" transform="translate(0.500000 0.500000)" fill="#FFFFFF" fill-opacity="0"/>
	<rect id="Background" x="0.500000" y="0.500000" rx="16.000000" width="32.000000" height="32.892776" fill="#F5F5F5" fill-opacity="1.000000"/>
	<rect id="Background" x="0.500000" y="0.500000" rx="16.000000" width="32.000000" height="32.892776" stroke="#4CAF50" stroke-opacity="1.000000" stroke-width="1.000000"/>
	<path id="Shape" d="M23.72 22.51C23.29 21.5 21.2 20.82 19.81 20.19C18.42 19.56 18.6 19.17 18.56 18.65C18.55 18.58 18.55 18.51 18.55 18.43C19.03 17.99 19.41 17.39 19.67 16.71C19.67 16.71 19.68 16.67 19.69 16.66C19.74 16.51 19.79 16.35 19.83 16.19C20.15 16.13 20.34 15.77 20.4 15.44C20.48 15.3 20.62 14.98 20.59 14.6C20.54 14.11 20.35 13.89 20.15 13.8C20.15 13.78 20.15 13.75 20.15 13.72C20.15 13.11 20.09 12.22 19.99 11.64C19.97 11.47 19.93 11.32 19.88 11.15C19.68 10.45 19.25 9.8 18.68 9.35C18.08 8.9 17.24 8.65 16.5 8.65C15.75 8.65 14.91 8.89 14.32 9.35C13.75 9.81 13.32 10.45 13.12 11.15C13.07 11.32 13.03 11.47 13.01 11.64C12.9 12.22 12.85 13.1 12.85 13.72C12.85 13.75 12.85 13.77 12.85 13.79C12.63 13.88 12.43 14.1 12.38 14.6C12.35 14.97 12.51 15.29 12.57 15.43C12.65 15.77 12.83 16.13 13.16 16.18C13.2 16.35 13.25 16.5 13.31 16.66C13.31 16.67 13.31 16.68 13.31 16.69L13.32 16.7C13.58 17.39 13.98 18 14.47 18.44C14.47 18.51 14.46 18.57 14.46 18.64C14.42 19.16 14.56 19.55 13.17 20.18C11.78 20.81 9.69 21.49 9.26 22.5C8.83 23.52 9 24.12 9 24.12L23.99 24.12C23.98 24.13 24.16 23.53 23.72 22.51Z" fill="#4CAF50" fill-opacity="1.000000" fill-rule="evenodd"/>
</svg>
