<svg width="24.000000" height="24.000000" viewBox="0 0 24 24" fill="none" xmlns="http://www.w3.org/2000/svg" xmlns:xlink="http://www.w3.org/1999/xlink">
	<desc>
			Created with Pixso.
	</desc>
	<defs/>
	<g style="mix-blend-mode:normal">
		<path id="icon" d="M9 2.5L9 3.5C9 3.77 9.22 4 9.5 4L14.49 4C14.77 4 14.99 3.77 14.99 3.5L14.99 2.5C14.99 2.22 14.77 2 14.49 2L9.5 2C9.22 2 9 2.22 9 2.5ZM19 7L20.5 7C20.77 7 21 6.77 21 6.5L21 5.5C21 5.22 20.77 5 20.5 5L3.5 5C3.22 5 3 5.22 3 5.5L3 6.5C3 6.77 3.22 7 3.5 7L5 7L5.46 21.03C5.48 21.57 5.92 22 6.46 22L17.53 22C18.07 22 18.51 21.57 18.53 21.03L19 7ZM7 7L17 7L16.5 20L7.5 20L7 7ZM10.5 9L9.5 9C9.22 9 9 9.22 9 9.5L9 17.5C9 17.77 9.22 18 9.5 18L10.5 18C10.77 18 11 17.77 11 17.5L11 9.5C11 9.22 10.77 9 10.5 9ZM14.5 9L13.5 9C13.22 9 13 9.22 13 9.5L13 17.5C13 17.77 13.22 18 13.5 18L14.5 18C14.77 18 15 17.77 15 17.5L15 9.5C15 9.22 14.77 9 14.5 9Z" fill="#333333" fill-opacity="1.000000" fill-rule="evenodd"/>
	</g>
</svg>
